<svg xmlns="http://www.w3.org/2000/svg" viewBox="0 0 100 100" fill="none" role="img" aria-label="Balón de baloncesto">
  <defs>
    <filter id="bb-glow" x="-20%" y="-20%" width="140%" height="140%">
      <feGaussianBlur stdDeviation="1.2" result="blur"/>
      <feMerge>
        <feMergeNode in="blur"/>
        <feMergeNode in="SourceGraphic"/>
      </feMerge>
    </filter>
  </defs>
  <circle cx="50" cy="50" r="46" stroke="#00E5FF" stroke-width="2.4" filter="url(#bb-glow)"/>
  <path d="M50 4 C28 4 12 22 8 44" stroke="#00E5FF" stroke-width="2.2" stroke-linecap="round"/>
  <path d="M50 4 C72 4 88 22 92 44" stroke="#00E5FF" stroke-width="2.2" stroke-linecap="round"/>
  <path d="M50 96 C28 96 12 78 8 56" stroke="#00E5FF" stroke-width="2.2" stroke-linecap="round"/>
  <path d="M50 96 C72 96 88 78 92 56" stroke="#00E5FF" stroke-width="2.2" stroke-linecap="round"/>
  <path d="M4 50 C4 28 22 12 44 8" stroke="#66F7FF" stroke-width="2" stroke-linecap="round" opacity="0.85"/>
  <path d="M96 50 C96 72 78 88 56 92" stroke="#66F7FF" stroke-width="2" stroke-linecap="round" opacity="0.85"/>
  <path d="M4 50 L96 50" stroke="#00E5FF" stroke-width="2.2" stroke-linecap="round"/>
  <path d="M50 4 L50 96" stroke="#00E5FF" stroke-width="2.2" stroke-linecap="round"/>
</svg>
