<svg xmlns="http://www.w3.org/2000/svg" viewBox="0 0 480 560" fill="none" role="img" aria-label="SynqAI Club and Tactics Platform">
  <defs>
    <linearGradient id="bg" x1="240" y1="0" x2="240" y2="560" gradientUnits="userSpaceOnUse">
      <stop stop-color="#050A14"/>
      <stop offset="1" stop-color="#02060C"/>
    </linearGradient>
    <linearGradient id="hex-stroke" x1="120" y1="60" x2="360" y2="300" gradientUnits="userSpaceOnUse">
      <stop stop-color="#66F7FF"/>
      <stop offset="1" stop-color="#00E5FF"/>
    </linearGradient>
    <linearGradient id="hex-fill" x1="240" y1="80" x2="240" y2="280" gradientUnits="userSpaceOnUse">
      <stop stop-color="#0A1522"/>
      <stop offset="1" stop-color="#050A14"/>
    </linearGradient>
    <pattern id="hex-grid" width="28" height="24.25" patternUnits="userSpaceOnUse" patternTransform="scale(1.4)">
      <path d="M14 0 L28 8.25 L28 24.75 L14 33 L0 24.75 L0 8.25 Z" fill="none" stroke="#00E5FF" stroke-opacity="0.06" stroke-width="0.6"/>
    </pattern>
    <filter id="glow" x="-30%" y="-30%" width="160%" height="160%">
      <feGaussianBlur stdDeviation="4" result="blur"/>
      <feMerge>
        <feMergeNode in="blur"/>
        <feMergeNode in="SourceGraphic"/>
      </feMerge>
    </filter>
    <style>
      @import url('https://fonts.googleapis.com/css2?family=Exo+2:wght@800&amp;display=swap');
      .synq-wordmark { font-family: 'Exo 2', system-ui, sans-serif; font-weight: 800; letter-spacing: 0.12em; }
      .synq-tagline { font-family: 'Exo 2', system-ui, sans-serif; font-weight: 600; letter-spacing: 0.32em; font-size: 11px; fill: #FFFFFF; }
    </style>
  </defs>

  <rect width="480" height="560" fill="url(#bg)"/>
  <rect width="480" height="560" fill="url(#hex-grid)" opacity="0.55"/>
  <ellipse cx="240" cy="520" rx="180" ry="24" fill="#00E5FF" opacity="0.08"/>

  <g transform="translate(140 48) scale(2)">
    <path d="M50 8 84.64 28V72L50 92 15.36 72V28L50 8Z" stroke="url(#hex-stroke)" stroke-width="3" filter="url(#glow)"/>
    <path d="M50 16 76.16 31.1V68.9L50 84 23.84 68.9V31.1L50 16Z" fill="url(#hex-fill)" stroke="#00E5FF" stroke-opacity="0.28" stroke-width="1.2"/>
    <circle cx="50" cy="54" r="3.2" stroke="#00E5FF" stroke-width="1.4" fill="none"/>
    <circle cx="32" cy="38" r="3.4" fill="#00E5FF"/>
    <circle cx="28" cy="58" r="3.4" fill="#00E5FF"/>
    <circle cx="38" cy="72" r="3.4" fill="#00E5FF"/>
    <circle cx="66" cy="42" r="3.4" fill="#00E5FF"/>
    <circle cx="70" cy="64" r="3.4" fill="#00E5FF"/>
    <path d="M50 54 32 38" stroke="#00E5FF" stroke-width="1.6" stroke-linecap="round"/>
    <path d="M50 54 28 58" stroke="#00E5FF" stroke-width="1.6" stroke-linecap="round"/>
    <path d="M50 54 66 42" stroke="#00E5FF" stroke-width="1.6" stroke-linecap="round"/>
    <path d="M32 38 28 58" stroke="#00E5FF" stroke-width="1.2" stroke-dasharray="3 2.5" stroke-opacity="0.9"/>
    <path d="M28 58 38 72" stroke="#00E5FF" stroke-width="1.2" stroke-dasharray="3 2.5" stroke-opacity="0.9"/>
    <path d="M38 72 Q52 58 70 64" stroke="#00E5FF" stroke-width="1.3" fill="none" stroke-linecap="round"/>
    <g stroke="#00E5FF" stroke-width="1.3" stroke-linecap="round">
      <path d="M72 34 l3.5 3.5M75.5 34 l-3.5 3.5"/>
      <path d="M24 74 l3 3M27 74 l-3 3"/>
    </g>
    <circle cx="74" cy="70" r="2.6" stroke="#00E5FF" stroke-width="1.3" fill="none"/>
  </g>

  <text x="240" y="400" text-anchor="middle" class="synq-wordmark" font-size="52">
    <tspan fill="#FFFFFF">SYNQ</tspan><tspan fill="#00E5FF">AI</tspan>
  </text>
  <text x="240" y="438" text-anchor="middle" class="synq-tagline">CLUB &amp; TACTICS PLATFORM</text>
</svg>
