<svg width="1440" height="810" viewBox="0 0 1440 810" fill="none" xmlns="http://www.w3.org/2000/svg">
  <rect width="1440" height="810" fill="#131821"/>
  <rect x="40" y="40" width="1360" height="730" rx="28" fill="#1C2430" stroke="#334155" stroke-width="2"/>
  <rect x="90" y="90" width="1260" height="140" rx="20" fill="#0F172A"/>
  <rect x="120" y="116" width="280" height="20" rx="10" fill="#22D3EE" fill-opacity="0.85"/>
  <rect x="120" y="156" width="210" height="16" rx="8" fill="#94A3B8" fill-opacity="0.65"/>
  <rect x="120" y="188" width="170" height="16" rx="8" fill="#94A3B8" fill-opacity="0.5"/>
  <rect x="460" y="116" width="180" height="16" rx="8" fill="#334155"/>
  <rect x="460" y="148" width="220" height="16" rx="8" fill="#334155"/>
  <rect x="460" y="180" width="200" height="16" rx="8" fill="#334155"/>
  <circle cx="1240" cy="160" r="38" fill="#10B981" fill-opacity="0.32" stroke="#10B981" stroke-width="2"/>
  <path d="M1224 160L1236 172L1258 150" stroke="#10B981" stroke-width="4" stroke-linecap="round" stroke-linejoin="round"/>
  <rect x="90" y="260" width="1260" height="470" rx="20" fill="#0F172A"/>
  <rect x="130" y="300" width="420" height="390" rx="16" fill="#111827" stroke="#334155"/>
  <rect x="130" y="300" width="420" height="56" rx="16" fill="#1F2937"/>
  <circle cx="164" cy="328" r="8" fill="#22D3EE"/>
  <rect x="186" y="320" width="180" height="16" rx="8" fill="#94A3B8"/>
  <rect x="160" y="382" width="360" height="16" rx="8" fill="#334155"/>
  <rect x="160" y="416" width="300" height="16" rx="8" fill="#334155"/>
  <rect x="160" y="450" width="330" height="16" rx="8" fill="#334155"/>
  <rect x="160" y="484" width="280" height="16" rx="8" fill="#334155"/>
  <rect x="160" y="518" width="340" height="16" rx="8" fill="#334155"/>
  <rect x="160" y="552" width="260" height="16" rx="8" fill="#334155"/>
  <rect x="620" y="300" width="690" height="390" rx="16" fill="#111827" stroke="#334155"/>
  <rect x="640" y="320" width="300" height="18" rx="9" fill="#22D3EE" fill-opacity="0.72"/>
  <rect x="640" y="354" width="240" height="14" rx="7" fill="#64748B"/>
  <rect x="640" y="390" width="160" height="240" rx="12" fill="#1E293B"/>
  <rect x="820" y="390" width="160" height="240" rx="12" fill="#1E293B"/>
  <rect x="1000" y="390" width="160" height="240" rx="12" fill="#1E293B"/>
  <rect x="1180" y="390" width="110" height="240" rx="12" fill="#1E293B"/>
  <rect x="670" y="472" width="100" height="8" rx="4" fill="#10B981"/>
  <rect x="850" y="512" width="100" height="8" rx="4" fill="#22D3EE"/>
  <rect x="1030" y="456" width="100" height="8" rx="4" fill="#A78BFA"/>
  <rect x="1210" y="540" width="50" height="8" rx="4" fill="#F59E0B"/>
  <text x="110" y="765" fill="#94A3B8" font-family="Inter, Arial, sans-serif" font-size="26" font-weight="700">
    CANVAS · WORKFLOW BOARD · DASHBOARD READY
  </text>
</svg>
