<svg width="1600" height="900" viewBox="0 0 1600 900" fill="none" xmlns="http://www.w3.org/2000/svg">
  <defs>
    <linearGradient id="bg" x1="0" y1="0" x2="1600" y2="900" gradientUnits="userSpaceOnUse">
      <stop stop-color="#0F172A"/>
      <stop offset="1" stop-color="#1E293B"/>
    </linearGradient>
  </defs>
  <rect width="1600" height="900" fill="url(#bg)"/>
  <rect x="80" y="80" width="1440" height="740" rx="28" fill="#111827" stroke="#334155"/>
  <rect x="120" y="140" width="760" height="620" rx="20" fill="#0B1220" stroke="#22D3EE" stroke-opacity="0.45"/>
  <line x1="160" y1="260" x2="840" y2="260" stroke="#334155"/>
  <line x1="160" y1="380" x2="840" y2="380" stroke="#334155"/>
  <line x1="160" y1="500" x2="840" y2="500" stroke="#334155"/>
  <line x1="160" y1="620" x2="840" y2="620" stroke="#334155"/>
  <circle cx="320" cy="320" r="26" fill="#22D3EE"/>
  <circle cx="460" cy="440" r="26" fill="#22D3EE"/>
  <circle cx="580" cy="540" r="26" fill="#22D3EE"/>
  <path d="M320 320L460 440L580 540" stroke="#22D3EE" stroke-width="5"/>
  <rect x="920" y="140" width="560" height="300" rx="20" fill="#0B1220" stroke="#334155"/>
  <rect x="920" y="470" width="560" height="290" rx="20" fill="#0B1220" stroke="#334155"/>
  <text x="950" y="220" fill="#22D3EE" font-size="46" font-family="Inter, Arial, sans-serif" font-weight="700">CANVAS BOARD</text>
  <text x="950" y="290" fill="#94A3B8" font-size="28" font-family="Inter, Arial, sans-serif">Pizarra t·ctica " Multideporte</text>
  <text x="950" y="560" fill="#E2E8F0" font-size="30" font-family="Inter, Arial, sans-serif" font-weight="700">SYNQAI SANDBOX COACH</text>
</svg>
