<svg width="1600" height="900" viewBox="0 0 1600 900" fill="none" xmlns="http://www.w3.org/2000/svg">
  <rect width="1600" height="900" fill="#11161D"/>
  <rect x="70" y="80" width="1460" height="740" rx="30" fill="#1B2530" stroke="#2A3948" stroke-width="2"/>
  <rect x="130" y="140" width="500" height="620" rx="20" fill="#202E3B" stroke="#33506A"/>
  <rect x="690" y="140" width="780" height="620" rx="20" fill="#16222D" stroke="#2A3F53"/>
  <circle cx="380" cy="300" r="95" stroke="#1DD1FF" stroke-width="6"/>
  <circle cx="380" cy="300" r="48" stroke="#58D4FF" stroke-width="4"/>
  <line x1="130" y1="455" x2="630" y2="455" stroke="#35566F" stroke-width="3"/>
  <line x1="690" y1="270" x2="1470" y2="270" stroke="#2E465C" stroke-width="3"/>
  <line x1="690" y1="450" x2="1470" y2="450" stroke="#2E465C" stroke-width="3"/>
  <line x1="690" y1="630" x2="1470" y2="630" stroke="#2E465C" stroke-width="3"/>
  <rect x="760" y="198" width="130" height="58" rx="12" fill="#0EA5B8"/>
  <rect x="915" y="198" width="130" height="58" rx="12" fill="#1E8FA0"/>
  <rect x="1070" y="198" width="130" height="58" rx="12" fill="#197B8A"/>
  <rect x="1225" y="198" width="130" height="58" rx="12" fill="#136B77"/>
  <rect x="760" y="378" width="130" height="58" rx="12" fill="#0EA5B8"/>
  <rect x="915" y="378" width="130" height="58" rx="12" fill="#1E8FA0"/>
  <rect x="1070" y="378" width="130" height="58" rx="12" fill="#197B8A"/>
  <rect x="1225" y="378" width="130" height="58" rx="12" fill="#136B77"/>
  <rect x="760" y="558" width="130" height="58" rx="12" fill="#0EA5B8"/>
  <rect x="915" y="558" width="130" height="58" rx="12" fill="#1E8FA0"/>
  <rect x="1070" y="558" width="130" height="58" rx="12" fill="#197B8A"/>
  <rect x="1225" y="558" width="130" height="58" rx="12" fill="#136B77"/>
  <text x="100" y="54" fill="#7DD7F6" font-size="26" font-family="Arial, sans-serif" font-weight="700">SynqAI Canvas ∑ SesiÛn y din·mica</text>
</svg>
